<svg version="1.1" xmlns="http://www.w3.org/2000/svg" width="485.38pt" height="548pt" viewBox="0 0 485.38 548"><style type="text/css">.dashed {stroke-dasharray: 5,5} .dotted {stroke-dasharray: 1,5} .overlay {fill: none; pointer-events: all}</style><g><g transform="translate(4, 544)"><polygon stroke="#fffffe" stroke-opacity="0" fill="#ffffff" points="-4,4 -4,-544 481.38,-544 481.38,4"></polygon><g class="node"><title>1</title><path stroke="#000000" fill="none" d="M 134,-522 m -86.23,0 a 86.23,18 0 1,0 172.46,0 a 86.23,18 0 1,0 -172.46,0"></path><text x="134" y="-517.8" text-anchor="middle" font-family="'Times-Roman',serif" font-size="14" fill="#000000">MethodDeclaration</text></g><g class="node"><title>2</title><path stroke="#000000" fill="none" d="M 39,-450 m -31.92,0 a 31.92,18 0 1,0 63.84,0 a 31.92,18 0 1,0 -63.84,0"></path><text x="39" y="-445.8" text-anchor="middle" font-family="'Times-Roman',serif" font-size="14" fill="#000000">Class</text></g><g class="node"><title>3</title><path stroke="#000000" fill="none" d="M 134,-450 m -34.19,0 a 34.19,18 0 1,0 68.38,0 a 34.19,18 0 1,0 -68.38,0"></path><text x="134" y="-445.8" text-anchor="middle" font-family="'Times-Roman',serif" font-size="14" fill="#000000">Name</text></g><g class="node"><title>4</title><path stroke="#000000" fill="none" d="M 241,-450 m -34.21,0 a 34.21,18 0 1,0 68.42,0 a 34.21,18 0 1,0 -68.42,0"></path><text x="241" y="-445.8" text-anchor="middle" font-family="'Times-Roman',serif" font-size="14" fill="#000000">Block</text></g><g class="node"><title>val2</title><text x="27" y="-373.8" text-anchor="middle" font-family="'Times-Roman',serif" font-size="14" fill="#000000">string</text><path stroke="#000000" fill="none" d="M 54,-396 L 0,-396,0,-360,54,-360 Z"></path></g><g class="node"><title>val3</title><text x="134" y="-373.8" text-anchor="middle" font-family="'Times-Roman',serif" font-size="14" fill="#000000">METHOD_NAME</text><path stroke="#000000" fill="none" d="M 196.08,-396 L 71.92,-396,71.92,-360,196.08,-360 Z"></path></g><g class="node"><title>5</title><path stroke="#000000" fill="none" d="M 241,-378 m -27,0 a 27,18 0 1,0 54,0 a 27,18 0 1,0 -54,0"></path><text x="241" y="-373.8" text-anchor="middle" font-family="'Times-Roman',serif" font-size="14" fill="#000000">If</text></g><g class="node"><title>18</title><path stroke="#000000" fill="none" d="M 370,-378 m -37.14,0 a 37.14,18 0 1,0 74.28,0 a 37.14,18 0 1,0 -74.28,0"></path><text x="370" y="-373.8" text-anchor="middle" font-family="'Times-Roman',serif" font-size="14" fill="#000000">Return</text></g><g class="node"><title>6</title><path stroke="#000000" fill="none" d="M 89,-306 m -57.34,0 a 57.34,18 0 1,0 114.68,0 a 57.34,18 0 1,0 -114.68,0"></path><text x="89" y="-301.8" text-anchor="middle" font-family="'Times-Roman',serif" font-size="14" fill="#000000">MethodCall</text></g><g class="node"><title>9</title><path stroke="#000000" fill="none" d="M 241,-306 m -34.77,0 a 34.77,18 0 1,0 69.54,0 a 34.77,18 0 1,0 -69.54,0"></path><text x="241" y="-301.8" text-anchor="middle" font-family="'Times-Roman',serif" font-size="14" fill="#000000">While</text></g><g class="node"><title>8</title><path stroke="#000000" fill="none" d="M 82,-234 m -34.19,0 a 34.19,18 0 1,0 68.38,0 a 34.19,18 0 1,0 -68.38,0"></path><text x="82" y="-229.8" text-anchor="middle" font-family="'Times-Roman',serif" font-size="14" fill="#000000">Name</text></g><g class="node"><title>val8</title><path stroke="#000000" fill="none" d="M 139.31,-180 L 22.69,-180,22.69,-144,139.31,-144 Z"></path><text x="81" y="-157.8" text-anchor="middle" font-family="'Times-Roman',serif" font-size="14" fill="#000000">someprecondition</text></g><g class="node"><title>10</title><path stroke="#000000" fill="none" d="M 209,-234 m -68.92,0 a 68.92,18 0 1,0 137.84,0 a 68.92,18 0 1,0 -137.84,0"></path><text x="209" y="-229.8" text-anchor="middle" font-family="'Times-Roman',serif" font-size="14" fill="#000000">UnaryExpr:not</text></g><g class="node"><title>14</title><path stroke="#000000" fill="none" d="M 350,-234 m -53.89,0 a 53.89,18 0 1,0 107.78,0 a 53.89,18 0 1,0 -107.78,0"></path><text x="350" y="-229.8" text-anchor="middle" font-family="'Times-Roman',serif" font-size="14" fill="#000000">Expression</text></g><g class="node"><title>11</title><path stroke="#000000" fill="none" d="M 214,-162 m -57.34,0 a 57.34,18 0 1,0 114.68,0 a 57.34,18 0 1,0 -114.68,0"></path><text x="214" y="-157.8" text-anchor="middle" font-family="'Times-Roman',serif" font-size="14" fill="#000000">MethodCall</text></g><g class="node"><title>13</title><path stroke="#000000" fill="none" d="M 214,-90 m -34.19,0 a 34.19,18 0 1,0 68.38,0 a 34.19,18 0 1,0 -68.38,0"></path><text x="214" y="-85.8" text-anchor="middle" font-family="'Times-Roman',serif" font-size="14" fill="#000000">Name</text></g><g class="node"><title>val13</title><path stroke="#000000" fill="none" d="M 251.32,-36 L 176.68,-36,176.68,0,251.32,0 Z"></path><text x="214" y="-13.8" text-anchor="middle" font-family="'Times-Roman',serif" font-size="14" fill="#000000">completed</text></g><g class="node"><title>15</title><path stroke="#000000" fill="none" d="M 350,-162 m -57.34,0 a 57.34,18 0 1,0 114.68,0 a 57.34,18 0 1,0 -114.68,0"></path><text x="350" y="-157.8" text-anchor="middle" font-family="'Times-Roman',serif" font-size="14" fill="#000000">MethodCall</text></g><g class="node"><title>17</title><path stroke="#000000" fill="none" d="M 350,-90 m -34.19,0 a 34.19,18 0 1,0 68.38,0 a 34.19,18 0 1,0 -68.38,0"></path><text x="350" y="-85.8" text-anchor="middle" font-family="'Times-Roman',serif" font-size="14" fill="#000000">Name</text></g><g class="node"><title>val17</title><path stroke="#000000" fill="none" d="M 379.27,-36 L 320.73,-36,320.73,0,379.27,0 Z"></path><text x="350" y="-13.8" text-anchor="middle" font-family="'Times-Roman',serif" font-size="14" fill="#000000">dowork</text></g><g class="node"><title>19</title><path stroke="#000000" fill="none" d="M 417,-306 m -60.27,0 a 60.27,18 0 1,0 120.54,0 a 60.27,18 0 1,0 -120.54,0"></path><text x="417" y="-301.8" text-anchor="middle" font-family="'Times-Roman',serif" font-size="14" fill="#000000">StringLiteral</text></g><g class="node"><title>val19</title><path stroke="#000000" fill="none" d="M 476,-252 L 422,-252,422,-216,476,-216 Z"></path><text x="449" y="-229.8" text-anchor="middle" font-family="'Times-Roman',serif" font-size="14" fill="#000000">ok</text></g><g class="relation" style="opacity: 1;"><title>1-&gt;2</title><path stroke="#000000" fill="none" d="M 111.49,-504.41 C 97.82,-494.34,80.29,-481.42,65.9,-470.82"></path><path class="solid" stroke="#000000" fill="#000000" d="M 67.96,-467.99 L 57.83,-464.88,63.81,-473.63 Z"></path></g><g class="relation" style="opacity: 1;"><title>1-&gt;3</title><path stroke="#000000" fill="none" d="M 134,-503.7 C 134,-495.98,134,-486.71,134,-478.11"></path><path class="solid" stroke="#000000" fill="#000000" d="M 137.5,-478.1 L 134,-468.1,130.5,-478.1 Z"></path></g><g class="relation" style="opacity: 1;"><title>1-&gt;4</title><path stroke="#000000" fill="none" d="M 159.09,-504.59 C 174.83,-494.29,195.19,-480.97,211.67,-470.19"></path><path class="solid" stroke="#000000" fill="#000000" d="M 213.93,-472.89 L 220.38,-464.49,210.09,-467.04 Z"></path></g><g class="relation" style="opacity: 1;"><title>2-&gt;val2</title><path stroke="#000000" fill="none" d="M 36.1,-432.05 C 34.77,-424.35,33.18,-415.03,31.69,-406.36"></path><path class="solid" stroke="#000000" fill="#000000" d="M 35.1,-405.54 L 29.96,-396.28,28.2,-406.72 Z"></path></g><g class="relation" style="opacity: 1;"><title>3-&gt;val3</title><path stroke="#000000" fill="none" d="M 134,-431.7 C 134,-423.98,134,-414.71,134,-406.11"></path><path class="solid" stroke="#000000" fill="#000000" d="M 137.5,-406.1 L 134,-396.1,130.5,-406.1 Z"></path></g><g class="relation" style="opacity: 1;"><title>4-&gt;5</title><path stroke="#000000" fill="none" d="M 241,-431.7 C 241,-423.98,241,-414.71,241,-406.11"></path><path class="solid" stroke="#000000" fill="#000000" d="M 244.5,-406.1 L 241,-396.1,237.5,-406.1 Z"></path></g><g class="relation" style="opacity: 1;"><title>4-&gt;18</title><path stroke="#000000" fill="none" d="M 264.06,-436.49 C 284.32,-425.49,314.03,-409.37,336.83,-397"></path><path class="solid" stroke="#000000" fill="#000000" d="M 338.7,-399.96 L 345.82,-392.12,335.36,-393.81 Z"></path></g><g class="relation" style="opacity: 1;"><title>5-&gt;6</title><path stroke="#000000" fill="none" d="M 219.7,-366.89 C 214.87,-364.61,209.76,-362.21,205,-360,180.05,-348.41,151.99,-335.59,129.72,-325.45"></path><path class="solid" stroke="#000000" fill="#000000" d="M 131.11,-322.24 L 120.56,-321.29,128.21,-328.61 Z"></path></g><g class="relation" style="opacity: 1;"><title>5-&gt;9</title><path stroke="#000000" fill="none" d="M 241,-359.7 C 241,-351.98,241,-342.71,241,-334.11"></path><path class="solid" stroke="#000000" fill="#000000" d="M 244.5,-334.1 L 241,-324.1,237.5,-334.1 Z"></path></g><g class="relation" style="opacity: 1;"><title>6-&gt;8</title><path stroke="#000000" fill="none" d="M 87.27,-287.7 C 86.5,-279.98,85.57,-270.71,84.71,-262.11"></path><path class="solid" stroke="#000000" fill="#000000" d="M 88.19,-261.71 L 83.71,-252.1,81.22,-262.4 Z"></path></g><g class="relation" style="opacity: 1;"><title>8-&gt;val8</title><path stroke="#000000" fill="none" d="M 81.75,-215.7 C 81.64,-207.98,81.51,-198.71,81.39,-190.11"></path><path class="solid" stroke="#000000" fill="#000000" d="M 84.89,-190.05 L 81.24,-180.1,77.89,-190.15 Z"></path></g><g class="relation" style="opacity: 1;"><title>9-&gt;10</title><path stroke="#000000" fill="none" d="M 233.42,-288.41 C 229.69,-280.25,225.1,-270.22,220.92,-261.07"></path><path class="solid" stroke="#000000" fill="#000000" d="M 224.09,-259.6 L 216.75,-251.96,217.73,-262.51 Z"></path></g><g class="relation" style="opacity: 1;"><title>9-&gt;14</title><path stroke="#000000" fill="none" d="M 262.02,-291.5 C 277.75,-281.4,299.57,-267.39,317.54,-255.84"></path><path class="solid" stroke="#000000" fill="#000000" d="M 319.49,-258.75 L 326.01,-250.41,315.71,-252.86 Z"></path></g><g class="relation" style="opacity: 1;"><title>10-&gt;11</title><path stroke="#000000" fill="none" d="M 210.24,-215.7 C 210.79,-207.98,211.45,-198.71,212.06,-190.11"></path><path class="solid" stroke="#000000" fill="#000000" d="M 215.56,-190.33 L 212.78,-180.1,208.57,-189.83 Z"></path></g><g class="relation" style="opacity: 1;"><title>11-&gt;13</title><path stroke="#000000" fill="none" d="M 214,-143.7 C 214,-135.98,214,-126.71,214,-118.11"></path><path class="solid" stroke="#000000" fill="#000000" d="M 217.5,-118.1 L 214,-108.1,210.5,-118.1 Z"></path></g><g class="relation" style="opacity: 1;"><title>13-&gt;val13</title><path stroke="#000000" fill="none" d="M 214,-71.7 C 214,-63.98,214,-54.71,214,-46.11"></path><path class="solid" stroke="#000000" fill="#000000" d="M 217.5,-46.1 L 214,-36.1,210.5,-46.1 Z"></path></g><g class="relation" style="opacity: 1;"><title>14-&gt;15</title><path stroke="#000000" fill="none" d="M 350,-215.7 C 350,-207.98,350,-198.71,350,-190.11"></path><path class="solid" stroke="#000000" fill="#000000" d="M 353.5,-190.1 L 350,-180.1,346.5,-190.1 Z"></path></g><g class="relation" style="opacity: 1;"><title>15-&gt;17</title><path stroke="#000000" fill="none" d="M 350,-143.7 C 350,-135.98,350,-126.71,350,-118.11"></path><path class="solid" stroke="#000000" fill="#000000" d="M 353.5,-118.1 L 350,-108.1,346.5,-118.1 Z"></path></g><g class="relation" style="opacity: 1;"><title>17-&gt;val17</title><path stroke="#000000" fill="none" d="M 350,-71.7 C 350,-63.98,350,-54.71,350,-46.11"></path><path class="solid" stroke="#000000" fill="#000000" d="M 353.5,-46.1 L 350,-36.1,346.5,-46.1 Z"></path></g><g class="relation" style="opacity: 1;"><title>18-&gt;19</title><path stroke="#000000" fill="none" d="M 380.9,-360.76 C 386.55,-352.35,393.57,-341.89,399.92,-332.44"></path><path class="solid" stroke="#000000" fill="#000000" d="M 402.83,-334.38 L 405.5,-324.12,397.02,-330.48 Z"></path></g><g class="relation" style="opacity: 1;"><title>19-&gt;val19</title><path stroke="#000000" fill="none" d="M 424.75,-288.05 C 428.39,-280.09,432.81,-270.41,436.88,-261.51"></path><path class="solid" stroke="#000000" fill="#000000" d="M 440.13,-262.83 L 441.1,-252.28,433.76,-259.91 Z"></path></g></g></g></svg>