<svg version="1.1" xmlns="http://www.w3.org/2000/svg" width="489.38pt" height="548pt" viewBox="0 0 489.38 548"><style type="text/css">.dashed {stroke-dasharray: 5,5} .dotted {stroke-dasharray: 1,5} .overlay {fill: none; pointer-events: all}</style><g><g transform="translate(4, 544)"><polygon stroke="#fffffe" stroke-opacity="0" fill="#ffffff" points="-4,4 -4,-544 485.38,-544 485.38,4"></polygon><g class="node"><title>1</title><path stroke="#000000" fill="none" d="M 136,-522 m -86.23,0 a 86.23,18 0 1,0 172.46,0 a 86.23,18 0 1,0 -172.46,0"></path><text x="136" y="-517.8" text-anchor="middle" font-family="'Times-Roman',serif" font-size="14" fill="#000000">MethodDeclaration</text></g><g class="node"><title>2</title><path stroke="#000000" fill="none" d="M 40,-450 m -31.92,0 a 31.92,18 0 1,0 63.84,0 a 31.92,18 0 1,0 -63.84,0"></path><text x="40" y="-445.8" text-anchor="middle" font-family="'Times-Roman',serif" font-size="14" fill="#000000">Class</text></g><g class="node"><title>3</title><path stroke="#000000" fill="none" d="M 136,-450 m -34.19,0 a 34.19,18 0 1,0 68.38,0 a 34.19,18 0 1,0 -68.38,0"></path><text x="136" y="-445.8" text-anchor="middle" font-family="'Times-Roman',serif" font-size="14" fill="#000000">Name</text></g><g class="node"><title>4</title><path stroke="#000000" fill="none" d="M 245,-450 m -34.21,0 a 34.21,18 0 1,0 68.42,0 a 34.21,18 0 1,0 -68.42,0"></path><text x="245" y="-445.8" text-anchor="middle" font-family="'Times-Roman',serif" font-size="14" fill="#000000">Block</text></g><g class="node"><title>val2</title><text x="27" y="-373.8" text-anchor="middle" font-family="'Times-Roman',serif" font-size="14" fill="#000000">string</text><path stroke="#000000" fill="none" d="M 54,-396 L 0,-396,0,-360,54,-360 Z"></path></g><g class="node"><title>val3</title><text x="136" y="-373.8" text-anchor="middle" font-family="'Times-Roman',serif" font-size="14" fill="#000000">METHOD\_NAME</text><path stroke="#000000" fill="none" d="M 199.97,-396 L 72.03,-396,72.03,-360,199.97,-360 Z"></path></g><g class="node"><title>5</title><path stroke="#000000" fill="none" d="M 245,-378 m -27,0 a 27,18 0 1,0 54,0 a 27,18 0 1,0 -54,0"></path><text x="245" y="-373.8" text-anchor="middle" font-family="'Times-Roman',serif" font-size="14" fill="#000000">If</text></g><g class="node"><title>18</title><path stroke="#000000" fill="none" d="M 374,-378 m -37.14,0 a 37.14,18 0 1,0 74.28,0 a 37.14,18 0 1,0 -74.28,0"></path><text x="374" y="-373.8" text-anchor="middle" font-family="'Times-Roman',serif" font-size="14" fill="#000000">Return</text></g><g class="node"><title>6</title><path stroke="#000000" fill="none" d="M 93,-306 m -57.34,0 a 57.34,18 0 1,0 114.68,0 a 57.34,18 0 1,0 -114.68,0"></path><text x="93" y="-301.8" text-anchor="middle" font-family="'Times-Roman',serif" font-size="14" fill="#000000">MethodCall</text></g><g class="node"><title>9</title><path stroke="#000000" fill="none" d="M 245,-306 m -34.77,0 a 34.77,18 0 1,0 69.54,0 a 34.77,18 0 1,0 -69.54,0"></path><text x="245" y="-301.8" text-anchor="middle" font-family="'Times-Roman',serif" font-size="14" fill="#000000">While</text></g><g class="node"><title>8</title><path stroke="#000000" fill="none" d="M 86,-234 m -34.19,0 a 34.19,18 0 1,0 68.38,0 a 34.19,18 0 1,0 -68.38,0"></path><text x="86" y="-229.8" text-anchor="middle" font-family="'Times-Roman',serif" font-size="14" fill="#000000">Name</text></g><g class="node"><title>val8</title><path stroke="#000000" fill="none" d="M 143.31,-180 L 26.69,-180,26.69,-144,143.31,-144 Z"></path><text x="85" y="-157.8" text-anchor="middle" font-family="'Times-Roman',serif" font-size="14" fill="#000000">someprecondition</text></g><g class="node"><title>10</title><path stroke="#000000" fill="none" d="M 213,-234 m -68.92,0 a 68.92,18 0 1,0 137.84,0 a 68.92,18 0 1,0 -137.84,0"></path><text x="213" y="-229.8" text-anchor="middle" font-family="'Times-Roman',serif" font-size="14" fill="#000000">UnaryExpr:not</text></g><g class="node"><title>14</title><path stroke="#000000" fill="none" d="M 354,-234 m -53.89,0 a 53.89,18 0 1,0 107.78,0 a 53.89,18 0 1,0 -107.78,0"></path><text x="354" y="-229.8" text-anchor="middle" font-family="'Times-Roman',serif" font-size="14" fill="#000000">Expression</text></g><g class="node"><title>11</title><path stroke="#000000" fill="none" d="M 218,-162 m -57.34,0 a 57.34,18 0 1,0 114.68,0 a 57.34,18 0 1,0 -114.68,0"></path><text x="218" y="-157.8" text-anchor="middle" font-family="'Times-Roman',serif" font-size="14" fill="#000000">MethodCall</text></g><g class="node"><title>13</title><path stroke="#000000" fill="none" d="M 218,-90 m -34.19,0 a 34.19,18 0 1,0 68.38,0 a 34.19,18 0 1,0 -68.38,0"></path><text x="218" y="-85.8" text-anchor="middle" font-family="'Times-Roman',serif" font-size="14" fill="#000000">Name</text></g><g class="node"><title>val13</title><path stroke="#000000" fill="none" d="M 255.32,-36 L 180.68,-36,180.68,0,255.32,0 Z"></path><text x="218" y="-13.8" text-anchor="middle" font-family="'Times-Roman',serif" font-size="14" fill="#000000">completed</text></g><g class="node"><title>15</title><path stroke="#000000" fill="none" d="M 354,-162 m -57.34,0 a 57.34,18 0 1,0 114.68,0 a 57.34,18 0 1,0 -114.68,0"></path><text x="354" y="-157.8" text-anchor="middle" font-family="'Times-Roman',serif" font-size="14" fill="#000000">MethodCall</text></g><g class="node"><title>17</title><path stroke="#000000" fill="none" d="M 354,-90 m -34.19,0 a 34.19,18 0 1,0 68.38,0 a 34.19,18 0 1,0 -68.38,0"></path><text x="354" y="-85.8" text-anchor="middle" font-family="'Times-Roman',serif" font-size="14" fill="#000000">Name</text></g><g class="node"><title>val17</title><path stroke="#000000" fill="none" d="M 383.27,-36 L 324.73,-36,324.73,0,383.27,0 Z"></path><text x="354" y="-13.8" text-anchor="middle" font-family="'Times-Roman',serif" font-size="14" fill="#000000">dowork</text></g><g class="node"><title>19</title><path stroke="#000000" fill="none" d="M 421,-306 m -60.27,0 a 60.27,18 0 1,0 120.54,0 a 60.27,18 0 1,0 -120.54,0"></path><text x="421" y="-301.8" text-anchor="middle" font-family="'Times-Roman',serif" font-size="14" fill="#000000">StringLiteral</text></g><g class="node"><title>val19</title><path stroke="#000000" fill="none" d="M 480,-252 L 426,-252,426,-216,480,-216 Z"></path><text x="453" y="-229.8" text-anchor="middle" font-family="'Times-Roman',serif" font-size="14" fill="#000000">ok</text></g><g class="relation" style="opacity: 1;"><title>1-&gt;2</title><path stroke="#000000" fill="none" d="M 113.25,-504.41 C 99.34,-494.27,81.49,-481.25,66.89,-470.6"></path><path class="solid" stroke="#000000" fill="#000000" d="M 68.86,-467.71 L 58.72,-464.65,64.74,-473.37 Z"></path></g><g class="relation" style="opacity: 1;"><title>1-&gt;3</title><path stroke="#000000" fill="none" d="M 136,-503.7 C 136,-495.98,136,-486.71,136,-478.11"></path><path class="solid" stroke="#000000" fill="#000000" d="M 139.5,-478.1 L 136,-468.1,132.5,-478.1 Z"></path></g><g class="relation" style="opacity: 1;"><title>1-&gt;4</title><path stroke="#000000" fill="none" d="M 161.28,-504.76 C 177.56,-494.31,198.78,-480.68,215.78,-469.76"></path><path class="solid" stroke="#000000" fill="#000000" d="M 217.72,-472.68 L 224.24,-464.33,213.94,-466.79 Z"></path></g><g class="relation" style="opacity: 1;"><title>2-&gt;val2</title><path stroke="#000000" fill="none" d="M 36.85,-432.05 C 35.42,-424.35,33.69,-415.03,32.08,-406.36"></path><path class="solid" stroke="#000000" fill="#000000" d="M 35.48,-405.47 L 30.21,-396.28,28.59,-406.75 Z"></path></g><g class="relation" style="opacity: 1;"><title>3-&gt;val3</title><path stroke="#000000" fill="none" d="M 136,-431.7 C 136,-423.98,136,-414.71,136,-406.11"></path><path class="solid" stroke="#000000" fill="#000000" d="M 139.5,-406.1 L 136,-396.1,132.5,-406.1 Z"></path></g><g class="relation" style="opacity: 1;"><title>4-&gt;5</title><path stroke="#000000" fill="none" d="M 245,-431.7 C 245,-423.98,245,-414.71,245,-406.11"></path><path class="solid" stroke="#000000" fill="#000000" d="M 248.5,-406.1 L 245,-396.1,241.5,-406.1 Z"></path></g><g class="relation" style="opacity: 1;"><title>4-&gt;18</title><path stroke="#000000" fill="none" d="M 268.06,-436.49 C 288.32,-425.49,318.03,-409.37,340.83,-397"></path><path class="solid" stroke="#000000" fill="#000000" d="M 342.7,-399.96 L 349.82,-392.12,339.36,-393.81 Z"></path></g><g class="relation" style="opacity: 1;"><title>5-&gt;6</title><path stroke="#000000" fill="none" d="M 223.7,-366.89 C 218.87,-364.61,213.76,-362.21,209,-360,184.05,-348.41,155.99,-335.59,133.72,-325.45"></path><path class="solid" stroke="#000000" fill="#000000" d="M 135.11,-322.24 L 124.56,-321.29,132.21,-328.61 Z"></path></g><g class="relation" style="opacity: 1;"><title>5-&gt;9</title><path stroke="#000000" fill="none" d="M 245,-359.7 C 245,-351.98,245,-342.71,245,-334.11"></path><path class="solid" stroke="#000000" fill="#000000" d="M 248.5,-334.1 L 245,-324.1,241.5,-334.1 Z"></path></g><g class="relation" style="opacity: 1;"><title>6-&gt;8</title><path stroke="#000000" fill="none" d="M 91.27,-287.7 C 90.5,-279.98,89.57,-270.71,88.71,-262.11"></path><path class="solid" stroke="#000000" fill="#000000" d="M 92.19,-261.71 L 87.71,-252.1,85.22,-262.4 Z"></path></g><g class="relation" style="opacity: 1;"><title>8-&gt;val8</title><path stroke="#000000" fill="none" d="M 85.75,-215.7 C 85.64,-207.98,85.51,-198.71,85.39,-190.11"></path><path class="solid" stroke="#000000" fill="#000000" d="M 88.89,-190.05 L 85.24,-180.1,81.89,-190.15 Z"></path></g><g class="relation" style="opacity: 1;"><title>9-&gt;10</title><path stroke="#000000" fill="none" d="M 237.42,-288.41 C 233.69,-280.25,229.1,-270.22,224.92,-261.07"></path><path class="solid" stroke="#000000" fill="#000000" d="M 228.09,-259.6 L 220.75,-251.96,221.73,-262.51 Z"></path></g><g class="relation" style="opacity: 1;"><title>9-&gt;14</title><path stroke="#000000" fill="none" d="M 266.02,-291.5 C 281.75,-281.4,303.57,-267.39,321.54,-255.84"></path><path class="solid" stroke="#000000" fill="#000000" d="M 323.49,-258.75 L 330.01,-250.41,319.71,-252.86 Z"></path></g><g class="relation" style="opacity: 1;"><title>10-&gt;11</title><path stroke="#000000" fill="none" d="M 214.24,-215.7 C 214.79,-207.98,215.45,-198.71,216.06,-190.11"></path><path class="solid" stroke="#000000" fill="#000000" d="M 219.56,-190.33 L 216.78,-180.1,212.57,-189.83 Z"></path></g><g class="relation" style="opacity: 1;"><title>11-&gt;13</title><path stroke="#000000" fill="none" d="M 218,-143.7 C 218,-135.98,218,-126.71,218,-118.11"></path><path class="solid" stroke="#000000" fill="#000000" d="M 221.5,-118.1 L 218,-108.1,214.5,-118.1 Z"></path></g><g class="relation" style="opacity: 1;"><title>13-&gt;val13</title><path stroke="#000000" fill="none" d="M 218,-71.7 C 218,-63.98,218,-54.71,218,-46.11"></path><path class="solid" stroke="#000000" fill="#000000" d="M 221.5,-46.1 L 218,-36.1,214.5,-46.1 Z"></path></g><g class="relation" style="opacity: 1;"><title>14-&gt;15</title><path stroke="#000000" fill="none" d="M 354,-215.7 C 354,-207.98,354,-198.71,354,-190.11"></path><path class="solid" stroke="#000000" fill="#000000" d="M 357.5,-190.1 L 354,-180.1,350.5,-190.1 Z"></path></g><g class="relation" style="opacity: 1;"><title>15-&gt;17</title><path stroke="#000000" fill="none" d="M 354,-143.7 C 354,-135.98,354,-126.71,354,-118.11"></path><path class="solid" stroke="#000000" fill="#000000" d="M 357.5,-118.1 L 354,-108.1,350.5,-118.1 Z"></path></g><g class="relation" style="opacity: 1;"><title>17-&gt;val17</title><path stroke="#000000" fill="none" d="M 354,-71.7 C 354,-63.98,354,-54.71,354,-46.11"></path><path class="solid" stroke="#000000" fill="#000000" d="M 357.5,-46.1 L 354,-36.1,350.5,-46.1 Z"></path></g><g class="relation" style="opacity: 1;"><title>18-&gt;19</title><path stroke="#000000" fill="none" d="M 384.9,-360.76 C 390.55,-352.35,397.57,-341.89,403.92,-332.44"></path><path class="solid" stroke="#000000" fill="#000000" d="M 406.83,-334.38 L 409.5,-324.12,401.02,-330.48 Z"></path></g><g class="relation" style="opacity: 1;"><title>19-&gt;val19</title><path stroke="#000000" fill="none" d="M 428.75,-288.05 C 432.39,-280.09,436.81,-270.41,440.88,-261.51"></path><path class="solid" stroke="#000000" fill="#000000" d="M 444.13,-262.83 L 445.1,-252.28,437.76,-259.91 Z"></path></g></g></g></svg>